<svg id="svg" xmlns="http://www.w3.org/2000/svg" xmlns:xlink="http://www.w3.org/1999/xlink" width="400" height="400" viewBox="0, 0, 400,400"><g id="svgg"><path id="path0" d="M150.781 76.997 C 147.559 77.584,142.813 78.443,140.234 78.907 C 129.688 80.803,118.836 84.877,109.766 90.346 C 101.762 95.171,89.063 108.962,89.063 112.828 C 89.063 113.456,88.762 114.156,88.395 114.383 C 85.944 115.897,82.491 132.847,82.491 143.359 C 82.491 161.802,87.577 175.882,98.126 186.638 C 104.627 193.266,104.424 192.969,102.439 192.969 C 101.633 192.969,100.535 193.496,100.000 194.141 C 99.465 194.785,98.596 195.313,98.068 195.313 C 94.515 195.313,80.828 207.566,75.634 215.398 C 60.492 238.228,63.192 279.952,81.264 302.403 C 89.013 312.029,93.922 316.106,103.700 321.037 C 113.818 326.139,113.135 326.530,122.266 310.381 C 126.563 302.780,130.504 295.841,131.024 294.961 C 131.544 294.080,132.222 292.832,132.529 292.188 C 132.837 291.543,133.874 289.755,134.833 288.214 C 135.792 286.672,138.044 282.708,139.836 279.404 L 143.095 273.396 140.737 270.712 C 136.018 265.337,134.912 261.591,134.849 250.781 C 134.738 231.683,142.276 224.083,164.063 221.323 C 173.905 220.076,173.510 220.311,177.416 213.367 C 178.530 211.386,183.305 203.086,188.028 194.922 C 192.751 186.758,197.957 177.617,199.597 174.609 C 201.238 171.602,206.622 162.109,211.563 153.516 C 216.504 144.922,221.338 136.484,222.305 134.766 C 223.273 133.047,226.490 127.422,229.454 122.266 C 232.418 117.109,235.094 112.363,235.401 111.719 C 235.707 111.074,237.018 108.789,238.314 106.641 C 239.609 104.492,241.026 102.031,241.462 101.172 C 241.898 100.313,242.679 98.902,243.198 98.037 C 246.671 92.245,255.469 76.619,255.469 76.241 C 255.469 75.194,156.772 75.906,150.781 76.997 M278.825 77.539 C 276.702 81.607,273.189 87.947,272.657 88.672 C 272.342 89.102,271.210 91.035,270.142 92.969 C 269.074 94.902,262.027 107.249,254.482 120.406 C 246.937 133.563,239.660 146.395,238.310 148.922 C 236.960 151.448,235.536 154.043,235.146 154.688 C 234.141 156.344,222.801 176.245,220.455 180.469 C 219.381 182.402,217.679 185.296,216.673 186.899 C 215.667 188.501,214.844 189.989,214.844 190.205 C 214.844 190.421,213.503 192.801,211.863 195.494 C 210.224 198.187,208.638 200.918,208.337 201.563 C 208.037 202.207,206.730 204.492,205.432 206.641 C 204.134 208.789,202.652 211.426,202.138 212.500 C 201.624 213.574,201.014 214.629,200.781 214.844 C 200.549 215.059,199.938 216.113,199.425 217.188 C 198.911 218.262,197.430 220.898,196.133 223.047 C 194.837 225.195,193.429 227.656,193.004 228.516 C 192.579 229.375,191.188 231.836,189.911 233.984 C 188.635 236.133,187.109 238.770,186.520 239.844 C 185.931 240.918,180.584 250.234,174.638 260.547 C 168.693 270.859,162.946 280.879,161.868 282.813 C 160.790 284.746,159.085 287.639,158.079 289.242 C 157.073 290.845,156.250 292.346,156.250 292.578 C 156.250 292.810,155.427 294.311,154.421 295.914 C 153.415 297.517,151.711 300.410,150.634 302.344 C 149.557 304.277,146.513 309.610,143.869 314.193 C 141.225 318.777,139.062 322.908,139.062 323.373 C 139.063 323.975,166.960 324.219,235.938 324.219 L 332.813 324.219 332.813 301.563 L 332.813 278.906 274.936 278.906 L 217.060 278.906 218.611 276.367 C 221.744 271.237,223.437 268.331,223.960 267.188 C 224.254 266.543,225.256 264.785,226.186 263.281 C 227.116 261.777,228.758 258.965,229.835 257.031 C 233.651 250.181,250.302 221.374,254.806 213.831 C 257.319 209.621,259.375 206.001,259.375 205.786 C 259.375 205.570,260.539 203.565,261.962 201.330 C 263.384 199.094,266.337 194.102,268.523 190.234 C 270.709 186.367,274.752 179.336,277.508 174.609 C 288.759 155.313,294.883 144.735,296.733 141.406 C 297.807 139.473,299.447 136.660,300.377 135.156 C 301.306 133.652,302.319 131.895,302.627 131.250 C 302.935 130.605,303.612 129.375,304.132 128.516 C 304.652 127.656,306.309 124.844,307.813 122.266 C 309.316 119.687,310.973 116.875,311.493 116.016 C 312.013 115.156,312.693 113.926,313.005 113.281 C 313.316 112.637,314.912 109.906,316.551 107.213 C 318.190 104.520,319.531 102.163,319.531 101.975 C 319.531 101.787,321.925 97.662,324.850 92.809 C 327.776 87.955,330.416 83.457,330.718 82.813 C 331.020 82.168,331.941 80.586,332.764 79.297 C 333.587 78.008,334.286 76.689,334.318 76.367 C 334.349 76.045,322.083 75.781,307.059 75.781 L 279.742 75.781 278.825 77.539 M184.657 125.497 L 188.281 125.994 188.281 150.225 L 188.281 174.457 178.777 173.979 C 159.643 173.017,151.187 165.877,150.181 149.832 C 149.033 131.538,161.993 122.390,184.657 125.497 " stroke="none" fill="#000000" fill-rule="evenodd"></path></g></svg>